<mxfile modified="2021-12-14T16:28:02.102Z" host="app.diagrams.net" agent="5.0 (Windows NT 10.0; Win64; x64) AppleWebKit/537.36 (KHTML, like Gecko) Chrome/96.0.4664.93 Safari/537.36" etag="PnkMl5IiSGr2SUcYNroH" version="15.9.6" type="github">
  <diagram id="Ht1M8jgEwFfnCIfOTk4-" name="Page-1">
    <mxGraphModel dx="2062" dy="2751" grid="1" gridSize="10" guides="1" tooltips="1" connect="1" arrows="1" fold="1" page="1" pageScale="1" pageWidth="1169" pageHeight="827" math="0" shadow="0">
      <root>
        <mxCell id="0" />
        <mxCell id="1" parent="0" />
        <mxCell id="bbJUXdScnfACV2wAAi5e-44" value="Partner&#39;s subnet" style="points=[[0,0],[0.25,0],[0.5,0],[0.75,0],[1,0],[1,0.25],[1,0.5],[1,0.75],[1,1],[0.75,1],[0.5,1],[0.25,1],[0,1],[0,0.75],[0,0.5],[0,0.25]];outlineConnect=0;html=1;whiteSpace=wrap;fontSize=12;fontStyle=0;container=1;pointerEvents=0;collapsible=0;recursiveResize=0;shape=mxgraph.aws4.group;grIcon=mxgraph.aws4.group_region;verticalAlign=top;align=left;spacingLeft=30;dashed=1;" vertex="1" parent="1">
          <mxGeometry x="10" y="-1537.5" width="160" height="175" as="geometry" />
        </mxCell>
        <mxCell id="bbJUXdScnfACV2wAAi5e-56" value="Partner&#39;s API&lt;br&gt;" style="image;html=1;image=img/lib/clip_art/computers/Server_Tower_128x128.png;fillColor=#000000;gradientColor=none;" vertex="1" parent="bbJUXdScnfACV2wAAi5e-44">
          <mxGeometry y="29" width="140" height="102" as="geometry" />
        </mxCell>
        <mxCell id="bbJUXdScnfACV2wAAi5e-46" value="system&lt;br&gt;" style="points=[[0,0],[0.25,0],[0.5,0],[0.75,0],[1,0],[1,0.25],[1,0.5],[1,0.75],[1,1],[0.75,1],[0.5,1],[0.25,1],[0,1],[0,0.75],[0,0.5],[0,0.25]];outlineConnect=0;html=1;whiteSpace=wrap;fontSize=12;fontStyle=0;container=1;pointerEvents=0;collapsible=0;recursiveResize=0;shape=mxgraph.aws4.group;grIcon=mxgraph.aws4.group_corporate_data_center;verticalAlign=top;align=left;spacingLeft=30;strokeWidth=5;strokeColor=#E09F63;" vertex="1" parent="1">
          <mxGeometry x="250" y="-1620" width="610" height="340" as="geometry" />
        </mxCell>
        <mxCell id="bbJUXdScnfACV2wAAi5e-9" value="Web Server" style="dashed=0;outlineConnect=0;html=1;align=center;labelPosition=center;verticalLabelPosition=bottom;verticalAlign=top;shape=mxgraph.weblogos.apache;fillColor=#000000;gradientColor=none;" vertex="1" parent="bbJUXdScnfACV2wAAi5e-46">
          <mxGeometry x="490" y="107.3999999999999" width="42.6" height="85.2" as="geometry" />
        </mxCell>
        <mxCell id="bbJUXdScnfACV2wAAi5e-14" value="" style="endArrow=classic;startArrow=classic;html=1;rounded=0;entryX=1;entryY=0.5;entryDx=0;entryDy=0;" edge="1" parent="bbJUXdScnfACV2wAAi5e-46" source="bbJUXdScnfACV2wAAi5e-9" target="bbJUXdScnfACV2wAAi5e-59">
          <mxGeometry width="50" height="50" relative="1" as="geometry">
            <mxPoint x="400" y="120" as="sourcePoint" />
            <mxPoint x="450" y="148" as="targetPoint" />
          </mxGeometry>
        </mxCell>
        <mxCell id="bbJUXdScnfACV2wAAi5e-35" value="Firewall&lt;br&gt;" style="image;html=1;image=img/lib/clip_art/networking/Firewall-page1_128x128.png;fillColor=#000000;gradientColor=none;" vertex="1" parent="bbJUXdScnfACV2wAAi5e-46">
          <mxGeometry x="471.29999999999995" y="300" width="80" height="80" as="geometry" />
        </mxCell>
        <mxCell id="bbJUXdScnfACV2wAAi5e-53" value="" style="endArrow=classic;startArrow=classic;html=1;rounded=0;exitX=0.5;exitY=0;exitDx=0;exitDy=0;" edge="1" parent="bbJUXdScnfACV2wAAi5e-46" source="bbJUXdScnfACV2wAAi5e-35">
          <mxGeometry width="50" height="50" relative="1" as="geometry">
            <mxPoint x="550" y="250" as="sourcePoint" />
            <mxPoint x="511" y="210" as="targetPoint" />
          </mxGeometry>
        </mxCell>
        <mxCell id="bbJUXdScnfACV2wAAi5e-59" value="Private subnet" style="points=[[0,0],[0.25,0],[0.5,0],[0.75,0],[1,0],[1,0.25],[1,0.5],[1,0.75],[1,1],[0.75,1],[0.5,1],[0.25,1],[0,1],[0,0.75],[0,0.5],[0,0.25]];outlineConnect=0;html=1;whiteSpace=wrap;fontSize=12;fontStyle=0;container=1;pointerEvents=0;collapsible=0;recursiveResize=0;shape=mxgraph.aws4.group;grIcon=mxgraph.aws4.group_security_group;grStroke=0;verticalAlign=top;align=left;spacingLeft=30;strokeWidth=6;perimeterSpacing=2;strokeColor=#E09F63;sketch=0;shadow=0;fillColor=#FFF2CC;" vertex="1" parent="bbJUXdScnfACV2wAAi5e-46">
          <mxGeometry x="100" y="80" width="310" height="140" as="geometry" />
        </mxCell>
        <mxCell id="bbJUXdScnfACV2wAAi5e-26" value="Server" style="image;html=1;image=img/lib/clip_art/computers/Server_128x128.png;fillColor=#000000;gradientColor=none;" vertex="1" parent="bbJUXdScnfACV2wAAi5e-59">
          <mxGeometry x="10" y="17.299999999999955" width="110" height="95.4" as="geometry" />
        </mxCell>
        <mxCell id="bbJUXdScnfACV2wAAi5e-41" value="&lt;br&gt;Data Base" style="shape=image;html=1;verticalAlign=top;verticalLabelPosition=bottom;labelBackgroundColor=#ffffff;imageAspect=0;aspect=fixed;image=https://cdn2.iconfinder.com/data/icons/font-awesome/1792/database-128.png;fillColor=#000000;gradientColor=none;" vertex="1" parent="bbJUXdScnfACV2wAAi5e-59">
          <mxGeometry x="210" y="25" width="80" height="80" as="geometry" />
        </mxCell>
        <mxCell id="bbJUXdScnfACV2wAAi5e-30" value="" style="endArrow=classic;startArrow=classic;html=1;rounded=0;" edge="1" parent="bbJUXdScnfACV2wAAi5e-59" source="bbJUXdScnfACV2wAAi5e-26" target="bbJUXdScnfACV2wAAi5e-41">
          <mxGeometry width="50" height="50" relative="1" as="geometry">
            <mxPoint x="300" y="-95.58999999999992" as="sourcePoint" />
            <mxPoint x="400" y="-95.89888030888028" as="targetPoint" />
          </mxGeometry>
        </mxCell>
        <mxCell id="bbJUXdScnfACV2wAAi5e-63" value="&lt;b&gt;&lt;font style=&quot;font-size: 16px ; background-color: rgb(255 , 255 , 102)&quot;&gt;1&lt;/font&gt;&lt;/b&gt;" style="ellipse;whiteSpace=wrap;html=1;aspect=fixed;strokeWidth=2;fontFamily=Tahoma;spacingBottom=4;spacingRight=2;strokeColor=#000000;fillColor=#FFFF66;gradientColor=none;" vertex="1" parent="bbJUXdScnfACV2wAAi5e-59">
          <mxGeometry x="140" y="10" width="40" height="40" as="geometry" />
        </mxCell>
        <mxCell id="bbJUXdScnfACV2wAAi5e-57" value="" style="shape=flexArrow;endArrow=classic;startArrow=classic;html=1;rounded=0;exitX=1;exitY=0.5;exitDx=0;exitDy=0;" edge="1" parent="bbJUXdScnfACV2wAAi5e-46" source="bbJUXdScnfACV2wAAi5e-44">
          <mxGeometry width="100" height="100" relative="1" as="geometry">
            <mxPoint y="270" as="sourcePoint" />
            <mxPoint x="100" y="170" as="targetPoint" />
          </mxGeometry>
        </mxCell>
        <mxCell id="bbJUXdScnfACV2wAAi5e-66" value="2" style="ellipse;whiteSpace=wrap;html=1;aspect=fixed;strokeWidth=2;fontFamily=Tahoma;spacingBottom=4;spacingRight=2;strokeColor=#000000;shadow=0;labelBackgroundColor=#FFFF66;sketch=0;fontSize=16;fillColor=#FFF2CC;gradientColor=none;" vertex="1" parent="bbJUXdScnfACV2wAAi5e-46">
          <mxGeometry x="440" y="100" width="40" height="40" as="geometry" />
        </mxCell>
        <mxCell id="bbJUXdScnfACV2wAAi5e-52" value="" style="endArrow=classic;startArrow=classic;html=1;rounded=0;exitX=1;exitY=0.5;exitDx=0;exitDy=0;" edge="1" parent="1" source="bbJUXdScnfACV2wAAi5e-60" target="bbJUXdScnfACV2wAAi5e-35">
          <mxGeometry width="50" height="50" relative="1" as="geometry">
            <mxPoint x="720" y="-1170" as="sourcePoint" />
            <mxPoint x="761" y="-1220" as="targetPoint" />
          </mxGeometry>
        </mxCell>
        <mxCell id="bbJUXdScnfACV2wAAi5e-60" value="Internet" style="points=[[0,0],[0.25,0],[0.5,0],[0.75,0],[1,0],[1,0.25],[1,0.5],[1,0.75],[1,1],[0.75,1],[0.5,1],[0.25,1],[0,1],[0,0.75],[0,0.5],[0,0.25]];outlineConnect=0;gradientColor=none;html=1;whiteSpace=wrap;fontSize=12;fontStyle=0;container=1;pointerEvents=0;collapsible=0;recursiveResize=0;shape=mxgraph.aws4.group;grIcon=mxgraph.aws4.group_security_group;grStroke=0;strokeColor=#66B2FF;fillColor=#E9F3E6;verticalAlign=top;align=left;spacingLeft=30;fontColor=#248814;dashed=0;" vertex="1" parent="1">
          <mxGeometry x="540" y="-1160" width="130" height="130" as="geometry" />
        </mxCell>
        <mxCell id="bbJUXdScnfACV2wAAi5e-7" value="devices" style="sketch=0;outlineConnect=0;gradientColor=none;fontColor=#545B64;strokeColor=none;fillColor=#000000;dashed=0;verticalLabelPosition=bottom;verticalAlign=top;align=center;html=1;fontSize=12;fontStyle=0;aspect=fixed;shape=mxgraph.aws4.illustration_devices;pointerEvents=1" vertex="1" parent="bbJUXdScnfACV2wAAi5e-60">
          <mxGeometry x="15" y="28.5" width="100" height="73" as="geometry" />
        </mxCell>
        <mxCell id="bbJUXdScnfACV2wAAi5e-67" value="1" style="ellipse;whiteSpace=wrap;html=1;aspect=fixed;strokeWidth=2;fontFamily=Tahoma;spacingBottom=4;spacingRight=2;shadow=0;labelBackgroundColor=#FFFFFF;sketch=0;fontSize=16;" vertex="1" parent="1">
          <mxGeometry x="670" y="-1230" width="40" height="40" as="geometry" />
        </mxCell>
        <mxCell id="bbJUXdScnfACV2wAAi5e-71" value="1" style="ellipse;whiteSpace=wrap;html=1;aspect=fixed;strokeWidth=2;fontFamily=Tahoma;spacingBottom=4;spacingRight=2;shadow=0;labelBackgroundColor=#2BD759;sketch=0;fontSize=16;fontColor=#000000;strokeColor=#000000;fillColor=#2BD759;" vertex="1" parent="1">
          <mxGeometry x="200" y="-1500" width="40" height="40" as="geometry" />
        </mxCell>
      </root>
    </mxGraphModel>
  </diagram>
</mxfile>
